<svg width="32" height="32" viewBox="0 0 32 32" fill="none" xmlns="http://www.w3.org/2000/svg">
<mask id="mask0_53_672" style="mask-type:alpha" maskUnits="userSpaceOnUse" x="0" y="0" width="32" height="32">
<path d="M32 16C32 24.8366 24.8366 32 16 32C7.16344 32 0 24.8366 0 16C0 7.16344 7.16344 0 16 0C24.8366 0 32 7.16344 32 16Z" fill="white"/>
</mask>
<g mask="url(#mask0_53_672)">
<circle cx="16" cy="16" r="16" fill="black"/>
<path fill-rule="evenodd" clip-rule="evenodd" d="M16 30.3342C23.9165 30.3342 30.3342 23.9165 30.3342 16C30.3342 8.08345 23.9165 1.66582 16 1.66582C8.08345 1.66582 1.66582 8.08345 1.66582 16C1.66582 23.9165 8.08345 30.3342 16 30.3342ZM16 32C24.8366 32 32 24.8366 32 16C32 7.16344 24.8366 0 16 0C7.16344 0 0 7.16344 0 16C0 24.8366 7.16344 32 16 32Z" fill="white"/>
<path d="M6.70947 30.322V8.85474H9.36306V30.322H6.70947Z" fill="white"/>
<path d="M17.7855 30.322V21.3922L10.5552 8.85474H13.6411L19.1272 18.351L24.5984 8.85474H27.6843L20.4689 21.3922V30.322H17.7855Z" fill="white"/>
</g>
</svg>
