<svg width="35" height="35" viewBox="0 0 35 35" fill="none" xmlns="http://www.w3.org/2000/svg">
    <mask id="mask0_0_124" style="mask-type:alpha" maskUnits="userSpaceOnUse" x="0" y="0" width="35" height="35">
        <path d="M35 17.5C35 27.165 27.165 35 17.5 35C7.83502 35 0 27.165 0 17.5C0 7.83502 7.83502 0 17.5 0C27.165 0 35 7.83502 35 17.5Z" fill="#D9D9D9"/>
    </mask>
    <g mask="url(#mask0_0_124)">
        <path fill-rule="evenodd" clip-rule="evenodd" d="M17.5 33.178C26.1587 33.178 33.178 26.1587 33.178 17.5C33.178 8.84128 26.1587 1.82199 17.5 1.82199C8.84128 1.82199 1.82199 8.84128 1.82199 17.5C1.82199 26.1587 8.84128 33.178 17.5 33.178ZM17.5 35C27.165 35 35 27.165 35 17.5C35 7.83502 27.165 0 17.5 0C7.83502 0 0 7.83502 0 17.5C0 27.165 7.83502 35 17.5 35Z" fill="white"/>
        <path d="M7.3385 33.1646V9.68481H10.2409V33.1646H7.3385Z" fill="white"/>
        <path d="M19.4529 33.1646V23.3977L11.5448 9.68481H14.92L20.9204 20.0714L26.9045 9.68481H30.2797L22.3879 23.3977V33.1646H19.4529Z" fill="white"/>
    </g>
</svg>
